<?xml version="1.0" encoding="utf-8"?>
<!-- Generator: Adobe Illustrator 16.0.0, SVG Export Plug-In . SVG Version: 6.00 Build 0)  -->
<!DOCTYPE svg PUBLIC "-//W3C//DTD SVG 1.1//EN" "http://www.w3.org/Graphics/SVG/1.1/DTD/svg11.dtd">
<svg version="1.1" id="Layer_1" xmlns="http://www.w3.org/2000/svg" xmlns:xlink="http://www.w3.org/1999/xlink" x="0px" y="0px"
	 width="238.944px" height="108.584px" viewBox="0 0 238.944 108.584" enable-background="new 0 0 238.944 108.584"
	 xml:space="preserve">
<g>
	<g>
		<g>
			<path fill="#006998" d="M119.855,41.6c0,0.648,0.114,1.257,0.304,1.792c0.609,1.639,2.434,1.982,3.994,1.982
				c1.37,0,3.46-0.458,3.46-2.478c0-1.373-1.179-1.792-5.856-3.125c-4.296-1.219-9.201-2.402-9.201-7.891
				c0-6.29,5.36-8.995,10.951-8.995c5.895,0,11.143,2.286,11.332,8.881h-7.908c0.15-1.03-0.267-1.716-0.991-2.174
				c-0.722-0.495-1.595-0.686-2.472-0.686c-1.141,0-3.004,0.306-3.004,1.83c0.114,1.906,4.068,2.44,7.871,3.431
				c3.843,1.106,7.646,2.821,7.646,7.853c0,7.089-6.466,9.376-12.55,9.376c-3.043,0-11.941-1.105-11.941-9.796H119.855z"/>
			<path fill="#006998" d="M146.092,23.531h8.179l9.887,27.217h-8.67l-1.142-3.888h-8.634l-1.217,3.888h-8.403L146.092,23.531z
				 M152.672,41.027l-2.434-8.386h-0.076l-2.624,8.386H152.672z"/>
			<path fill="#006998" d="M166.017,23.531h20.994v6.976h-12.626V33.9h10.838v6.479h-10.838v10.369h-8.368V23.531z"/>
			<path fill="#006998" d="M195.414,23.531h8.175l9.89,27.217h-8.672l-1.141-3.888h-8.633l-1.216,3.888h-8.405L195.414,23.531z
				 M201.993,41.027l-2.434-8.386h-0.077l-2.624,8.386H201.993z"/>
		</g>
		<g>
			<g>
				<path fill="#006998" d="M111.489,67.683h3.814v0.812h-2.887v1.403h2.671v0.766h-2.671v1.568h2.938v0.811h-3.866V67.683z"/>
				<path fill="#006998" d="M116.772,71.256c0,0.818,0.602,1.147,1.344,1.147c0.817,0,1.12-0.412,1.12-0.811
					c0-0.412-0.222-0.576-0.437-0.659c-0.378-0.144-0.846-0.241-1.582-0.443c-0.912-0.24-1.17-0.803-1.17-1.358
					c0-1.08,0.979-1.575,1.936-1.575c1.1,0,2.034,0.591,2.034,1.71h-0.929c-0.052-0.689-0.498-0.945-1.141-0.945
					c-0.433,0-0.975,0.158-0.975,0.699c0,0.382,0.253,0.576,0.632,0.689c0.081,0.023,1.254,0.33,1.529,0.412
					c0.69,0.219,1.031,0.797,1.031,1.367c0,1.201-1.062,1.682-2.108,1.682c-1.208,0-2.188-0.586-2.211-1.915H116.772z"/>
				<path fill="#006998" d="M124.549,69.388c-0.155-0.623-0.549-1.066-1.321-1.066c-1.135,0-1.609,1.014-1.609,2.041
					c0,1.028,0.474,2.041,1.609,2.041c0.832,0,1.271-0.622,1.351-1.402h0.906c-0.082,1.283-0.972,2.17-2.257,2.17
					c-1.581,0-2.537-1.27-2.537-2.809c0-1.523,0.956-2.806,2.537-2.806c1.202,0,2.13,0.675,2.249,1.831H124.549z"/>
				<path fill="#006998" d="M126.271,67.683h0.928v3.123c0,0.721,0.044,1.554,1.246,1.554c1.201,0,1.247-0.833,1.247-1.554v-3.123
					h0.928v3.43c0,1.373-0.869,2.059-2.175,2.059c-1.307,0-2.174-0.686-2.174-2.059V67.683z"/>
				<path fill="#006998" d="M131.688,67.683h3.814v0.812h-2.887v1.403h2.671v0.766h-2.671v1.568h2.938v0.811h-3.866V67.683z"/>
				<path fill="#006998" d="M136.362,67.683h0.928v4.549h2.695v0.811h-3.623V67.683z"/>
				<path fill="#006998" d="M142.04,67.683h0.986l2.041,5.359h-0.994l-0.497-1.418h-2.115l-0.497,1.418h-0.957L142.04,67.683z
					 M141.713,70.911h1.616l-0.792-2.305h-0.023L141.713,70.911z"/>
				<path fill="#006998" d="M146.18,71.256c0,0.818,0.602,1.147,1.344,1.147c0.814,0,1.12-0.412,1.12-0.811
					c0-0.412-0.222-0.576-0.438-0.659c-0.378-0.144-0.845-0.241-1.58-0.443c-0.913-0.24-1.173-0.803-1.173-1.358
					c0-1.08,0.979-1.575,1.938-1.575c1.098,0,2.032,0.591,2.032,1.71h-0.926c-0.053-0.689-0.498-0.945-1.144-0.945
					c-0.431,0-0.973,0.158-0.973,0.699c0,0.382,0.253,0.576,0.632,0.689c0.08,0.023,1.254,0.33,1.529,0.412
					c0.688,0.219,1.029,0.797,1.029,1.367c0,1.201-1.061,1.682-2.107,1.682c-1.21,0-2.188-0.586-2.211-1.915H146.18z"/>
				<path fill="#006998" d="M152.442,67.683h2.339c1.515,0,1.804,0.99,1.804,1.66c0,0.668-0.289,1.643-1.804,1.643h-1.409v2.057
					h-0.93V67.683z M153.372,70.22h1.357c0.415,0,0.928-0.209,0.928-0.885c0-0.706-0.423-0.885-0.912-0.885h-1.373V70.22z"/>
				<path fill="#006998" d="M157.393,67.683h2.529c1.166,0,1.752,0.541,1.752,1.449c0,1.029-0.697,1.291-0.875,1.351v0.016
					c0.318,0.036,0.786,0.292,0.786,1.134c0,0.631,0.089,1.192,0.29,1.41h-0.994c-0.142-0.232-0.142-0.525-0.142-0.788
					c0-0.983-0.201-1.418-1.054-1.418h-1.365v2.206h-0.928V67.683z M158.321,70.122h1.521c0.594,0,0.905-0.285,0.905-0.855
					c0-0.689-0.438-0.816-0.921-0.816h-1.506V70.122z"/>
				<path fill="#006998" d="M167.411,70.362c0,1.539-0.957,2.809-2.539,2.809c-1.58,0-2.537-1.27-2.537-2.809
					c0-1.523,0.957-2.806,2.537-2.806C166.454,67.557,167.411,68.839,167.411,70.362z M163.262,70.362
					c0,1.028,0.475,2.041,1.609,2.041c1.137,0,1.611-1.013,1.611-2.041c0-1.027-0.475-2.041-1.611-2.041
					C163.737,68.321,163.262,69.335,163.262,70.362z"/>
				<path fill="#006998" d="M168.256,67.683h3.66v0.812h-2.732v1.403h2.398v0.766h-2.398v2.379h-0.928V67.683z"/>
				<path fill="#006998" d="M172.657,67.683h3.814v0.812h-2.887v1.403h2.672v0.766h-2.672v1.568h2.938v0.811h-3.866V67.683z"/>
				<path fill="#006998" d="M177.94,71.256c0,0.818,0.602,1.147,1.344,1.147c0.817,0,1.12-0.412,1.12-0.811
					c0-0.412-0.222-0.576-0.438-0.659c-0.377-0.144-0.845-0.241-1.58-0.443c-0.912-0.24-1.172-0.803-1.172-1.358
					c0-1.08,0.979-1.575,1.937-1.575c1.098,0,2.034,0.591,2.034,1.71h-0.928c-0.053-0.689-0.498-0.945-1.144-0.945
					c-0.431,0-0.972,0.158-0.972,0.699c0,0.382,0.252,0.576,0.631,0.689c0.081,0.023,1.254,0.33,1.529,0.412
					c0.689,0.219,1.031,0.797,1.031,1.367c0,1.201-1.061,1.682-2.107,1.682c-1.21,0-2.19-0.586-2.213-1.915H177.94z"/>
				<path fill="#006998" d="M182.141,67.683h0.928v5.359h-0.928V67.683z"/>
				<path fill="#006998" d="M188.997,70.362c0,1.539-0.957,2.809-2.537,2.809c-1.581,0-2.538-1.27-2.538-2.809
					c0-1.523,0.957-2.806,2.538-2.806C188.04,67.557,188.997,68.839,188.997,70.362z M184.849,70.362
					c0,1.028,0.475,2.041,1.61,2.041c1.135,0,1.61-1.013,1.61-2.041c0-1.027-0.476-2.041-1.61-2.041
					C185.324,68.321,184.849,69.335,184.849,70.362z"/>
				<path fill="#006998" d="M189.805,67.683h0.98l2.418,3.949h0.017v-3.949h0.882v5.359h-0.979l-2.412-3.939h-0.022v3.939h-0.884
					V67.683z"/>
				<path fill="#006998" d="M196.618,67.683h0.987l2.04,5.359h-0.995l-0.497-1.418h-2.113l-0.498,1.418h-0.957L196.618,67.683z
					 M196.292,70.911h1.618l-0.794-2.305h-0.023L196.292,70.911z"/>
				<path fill="#006998" d="M200.151,67.683h0.928v4.549h2.693v0.811h-3.621V67.683z"/>
				<path fill="#006998" d="M204.41,67.683h3.814v0.812h-2.887v1.403h2.671v0.766h-2.671v1.568h2.938v0.811h-3.866V67.683z"/>
				<path fill="#006998" d="M209.693,71.256c0,0.818,0.601,1.147,1.343,1.147c0.818,0,1.121-0.412,1.121-0.811
					c0-0.412-0.223-0.576-0.438-0.659c-0.379-0.144-0.846-0.241-1.581-0.443c-0.913-0.24-1.172-0.803-1.172-1.358
					c0-1.08,0.979-1.575,1.937-1.575c1.1,0,2.032,0.591,2.032,1.71h-0.927c-0.052-0.689-0.497-0.945-1.143-0.945
					c-0.431,0-0.972,0.158-0.972,0.699c0,0.382,0.251,0.576,0.631,0.689c0.081,0.023,1.253,0.33,1.528,0.412
					c0.689,0.219,1.03,0.797,1.03,1.367c0,1.201-1.06,1.682-2.106,1.682c-1.211,0-2.189-0.586-2.212-1.915H209.693z"/>
			</g>
			<g>
				<path fill="#006998" d="M113.493,81.901c0.043,0.916,0.593,1.209,1.454,1.209c0.602,0,1.227-0.217,1.227-0.795
					c0-0.697-1.098-0.817-2.208-1.133c-1.088-0.316-2.252-0.805-2.252-2.243c0-1.7,1.692-2.363,3.136-2.363
					c1.517,0,3.079,0.763,3.079,2.505h-2.004c0.033-0.697-0.634-0.938-1.239-0.938c-0.429,0-0.969,0.153-0.969,0.666
					c0,0.609,1.111,0.707,2.231,1.023c1.108,0.314,2.229,0.838,2.229,2.242c0,1.972-1.658,2.604-3.349,2.604
					c-1.755,0-3.339-0.784-3.339-2.777H113.493z"/>
				<path fill="#006998" d="M121.203,76.739h2.034l2.877,7.775h-2.089l-0.476-1.394h-2.681l-0.486,1.394h-2.055L121.203,76.739z
					 M121.333,81.618h1.744l-0.851-2.723h-0.022L121.333,81.618z"/>
				<path fill="#006998" d="M133.792,84.515H132.5l-0.119-0.848c-0.518,0.75-1.454,1.012-2.144,1.012
					c-2.337,0-3.834-1.797-3.834-4.051c0-2.255,1.497-4.052,3.834-4.052c1.594,0,3.307,0.85,3.479,2.81h-2.002
					c-0.075-0.664-0.7-1.067-1.52-1.067c-1.291,0-1.788,1.144-1.788,2.31c0,1.164,0.497,2.309,1.788,2.309
					c0.991,0,1.648-0.469,1.766-1.177h-1.399v-1.503h3.231V84.515z"/>
				<path fill="#006998" d="M135.072,76.739h3.921c1.346,0,2.692,0.621,2.692,2.189c0,0.838-0.388,1.633-1.207,1.95v0.021
					c0.809,0.207,1.067,1.121,1.122,1.863c0.03,0.337,0.053,1.447,0.321,1.752h-1.981c-0.172-0.271-0.192-1.012-0.227-1.241
					c-0.053-0.783-0.172-1.59-1.119-1.59h-1.52v2.831h-2.003V76.739z M137.075,80.116h1.681c0.603,0,0.926-0.317,0.926-0.916
					c0-0.576-0.451-0.838-1.013-0.838h-1.594V80.116z"/>
				<path fill="#006998" d="M144.935,76.739h2.036l2.877,7.775h-2.092l-0.473-1.394h-2.681l-0.486,1.394h-2.056L144.935,76.739z
					 M145.066,81.618h1.743l-0.85-2.723h-0.021L145.066,81.618z"/>
				<path fill="#006998" d="M150.426,76.739h3.309c2.357,0,3.769,1.448,3.769,3.855c0,2.549-1.432,3.92-3.769,3.92h-3.309V76.739z
					 M152.43,82.772h0.948c1.519-0.032,2.121-0.631,2.121-2.188c0-1.427-0.743-2.103-2.121-2.103h-0.948V82.772z"/>
				<path fill="#006998" d="M160.69,76.739h2.036l2.875,7.775h-2.089l-0.475-1.394h-2.682l-0.484,1.394h-2.057L160.69,76.739z
					 M160.82,81.618h1.744l-0.851-2.723h-0.021L160.82,81.618z"/>
				<path fill="#006998" d="M169.575,76.739h5.664v1.623h-3.662v1.59h3.166v1.568h-3.166v2.994h-2.002V76.739z"/>
				<path fill="#006998" d="M177.651,76.739h2.035l2.875,7.775h-2.088l-0.475-1.394h-2.682l-0.485,1.394h-2.057L177.651,76.739z
					 M177.78,81.618h1.746l-0.854-2.723h-0.02L177.78,81.618z"/>
				<path fill="#006998" d="M183.154,76.739h2.95l1.324,5.184h0.021l1.325-5.184h2.95v7.775h-1.883v-5.902h-0.023l-1.615,5.902
					h-1.529l-1.615-5.902h-0.021v5.902h-1.885V76.739z"/>
				<path fill="#006998" d="M193.115,76.739h2.003v7.775h-2.003V76.739z"/>
				<path fill="#006998" d="M196.506,76.739h2.004v6.033h3.586v1.742h-5.59V76.739z"/>
				<path fill="#006998" d="M203.086,76.739h2.002v7.775h-2.002V76.739z"/>
				<path fill="#006998" d="M208.567,76.739h2.035l2.876,7.775h-2.089l-0.474-1.394h-2.683l-0.485,1.394h-2.056L208.567,76.739z
					 M208.698,81.618h1.743l-0.851-2.723h-0.022L208.698,81.618z"/>
			</g>
		</g>
		<g>
			<rect x="103.714" y="59.09" fill="#006998" width="117.539" height="0.772"/>
		</g>
	</g>
	<path fill="#006998" d="M96.376,53.01l-0.165-2.68c-0.021-0.251-0.193-0.594-0.382-0.762l-1.159-0.555
		c-0.244-0.061-0.651-0.128-0.903-0.147l-3.327-0.262c-0.252-0.02-0.497-0.238-0.547-0.486l-0.366-1.631
		c-0.063-0.244-0.169-0.643-0.235-0.887l-0.479-1.552c-0.081-0.239,0.025-0.551,0.233-0.693l2.74-1.864
		c0.209-0.142,0.384-0.26,0.389-0.263s0.158-0.148,0.34-0.323l0.736-1.064c0.081-0.239,0.061-0.623-0.044-0.853l-0.974-2.008
		c-0.114-0.225-0.312-0.588-0.438-0.807l-0.532-0.928c-0.127-0.219-0.341-0.572-0.477-0.784l-1.291-1.915
		c-0.144-0.206-0.267-0.377-0.27-0.379c0,0,0,0-0.003-0.001c-0.067-0.035-0.067-0.035-0.067-0.035
		c-0.078-0.032-0.143-0.059-0.143-0.059c-0.002-0.001-0.211-0.023-0.462-0.05l-1.048,0.146c-0.241,0.078-0.443,0.143-0.447,0.146
		c-0.004,0.003-0.195,0.094-0.424,0.203l-2.994,1.429c-0.227,0.108-0.55,0.042-0.716-0.147l-1.09-1.186
		c-0.176-0.18-0.467-0.473-0.646-0.651l-1.233-1.149c-0.189-0.167-0.254-0.49-0.144-0.717l1.45-3
		c0.11-0.228,0.201-0.415,0.201-0.415c0.002-0.002,0.043-0.083,0.094-0.181c0,0,0,0,0.041-0.09c0.135-0.301,0.206-0.611,0.22-0.909
		c0.016-0.362-0.054-0.56-0.054-0.56c-0.085-0.238-0.322-0.552-0.528-0.698l-1.991-1.347c-0.213-0.137-0.564-0.353-0.783-0.479
		l-0.764-0.444c-0.218-0.127-0.58-0.326-0.805-0.441l-2.083-1.023c-0.229-0.106-0.6-0.172-0.824-0.146c0,0,0,0-0.2,0.08
		c-0.469,0.184-0.919,0.724-0.919,0.724c-0.16,0.195-0.409,0.523-0.552,0.732l-1.888,2.75c-0.144,0.208-0.456,0.312-0.695,0.23
		l-1.565-0.489c-0.244-0.067-0.643-0.175-0.887-0.239l-1.615-0.37c-0.247-0.051-0.465-0.297-0.484-0.549l-0.242-3.307
		c-0.02-0.251-0.033-0.462-0.033-0.467c0-0.006-0.018-0.216-0.039-0.467c0,0-0.01-0.137-0.1-0.4
		c-0.16-0.479-0.485-0.781-0.485-0.781c-0.185-0.172-0.541-0.332-0.792-0.354l-2.636-0.176c-0.253-0.012-0.666-0.021-0.919-0.021
		l-0.276-0.001c-0.254,0-0.665,0.007-0.919,0.017l-2.681,0.165c-0.251,0.021-0.595,0.193-0.763,0.381l-0.558,1.158
		c-0.062,0.245-0.111,0.45-0.111,0.456c0,0.005-0.017,0.216-0.037,0.468l-0.259,3.308c-0.021,0.251-0.238,0.498-0.487,0.547
		l-1.566,0.35c-0.244,0.063-0.645,0.168-0.889,0.234l-1.615,0.495c-0.239,0.08-0.551-0.025-0.692-0.233l-1.877-2.76
		c-0.142-0.208-0.382-0.544-0.534-0.746c0,0-0.251-0.333-0.586-0.542c-0.305-0.189-0.501-0.224-0.501-0.224
		c-0.249-0.043-0.64,0.007-0.87,0.112l-2.062,1.001c-0.225,0.115-0.588,0.312-0.807,0.438l-0.826,0.474
		c-0.22,0.126-0.572,0.34-0.784,0.477l-1.953,1.313c-0.206,0.146-0.406,0.323-0.446,0.395c0,0,0,0-0.025,0.07
		c-0.008,0.018-0.014,0.037-0.021,0.057c-0.032,0.097-0.057,0.199-0.074,0.303c-0.003,0.016-0.005,0.032-0.008,0.048
		c-0.015,0.112-0.021,0.228-0.021,0.346c0,0.009,0,0.018,0.001,0.027c0.005,0.126,0.005,0.126,0.005,0.126
		c0.022,0.142,0.04,0.258,0.04,0.259s0.035,0.125,0.078,0.274c0.042,0.149,0.315,0.718,0.424,0.946l1.438,3.011
		c0.108,0.228,0.042,0.55-0.149,0.716l-1.199,1.106c-0.179,0.177-0.473,0.468-0.649,0.647l-1.134,1.22
		c-0.167,0.189-0.49,0.254-0.717,0.144l-2.985-1.442c-0.228-0.11-0.418-0.202-0.422-0.205c-0.006-0.003-0.198-0.09-0.428-0.194
		c0,0-0.251-0.112-0.585-0.152c-0.427-0.052-0.73,0.049-0.73,0.049c-0.24,0.079-0.557,0.312-0.702,0.518l-1.32,1.946
		c-0.137,0.212-0.353,0.564-0.479,0.782l-0.524,0.906c-0.128,0.218-0.326,0.58-0.441,0.805l-0.969,1.979
		c-0.105,0.229-0.167,0.621-0.137,0.871c0,0,0,0,0.096,0.222c0.191,0.445,0.695,0.859,0.695,0.859
		c0.195,0.16,0.357,0.293,0.361,0.295s0.176,0.121,0.383,0.263l2.741,1.882c0.209,0.143,0.312,0.456,0.23,0.695l-0.486,1.554
		c-0.068,0.243-0.175,0.642-0.239,0.886l-0.373,1.625c-0.051,0.247-0.297,0.464-0.551,0.483l-3.323,0.245
		c-0.251,0.019-0.458,0.034-0.458,0.034s-0.061,0.001-0.13,0.003c0,0,0,0-0.063,0.004c-0.329,0.022-0.638,0.103-0.908,0.229
		c-0.367,0.169-0.55,0.379-0.55,0.379c-0.166,0.189-0.32,0.551-0.344,0.802L23,52.832c-0.012,0.253-0.021,0.666-0.021,0.918
		l-0.001,0.237c0,0.253,0.007,0.666,0.018,0.918l0.164,2.705c0.022,0.252,0.181,0.608,0.354,0.793c0,0,0.306,0.326,0.785,0.487
		c0.26,0.089,0.39,0.101,0.39,0.101c0.251,0.021,0.663,0.055,0.914,0.074l3.326,0.26c0.252,0.02,0.499,0.239,0.547,0.486l0.36,1.604
		c0.064,0.244,0.17,0.644,0.237,0.887l0.486,1.581c0.079,0.239-0.025,0.552-0.234,0.693l-2.741,1.864
		c-0.209,0.141-0.384,0.26-0.388,0.262c-0.006,0.004-0.177,0.127-0.383,0.274c0,0-0.207,0.149-0.406,0.411
		c-0.271,0.352-0.34,0.689-0.34,0.689c-0.052,0.248-0.008,0.638,0.098,0.867l0.975,2.014c0.117,0.225,0.313,0.588,0.438,0.807
		l0.524,0.912c0.125,0.22,0.34,0.572,0.477,0.785l1.295,1.922c0.145,0.207,0.279,0.385,0.299,0.396c0,0,0,0,0.02,0.01
		c0.05,0.024,0.05,0.024,0.05,0.024c0.058,0.022,0.107,0.042,0.111,0.043c0.005,0.001,0.04,0.013,0.068,0.021c0,0,0,0,0.025,0.007
		c0.085,0.026,0.085,0.026,0.085,0.026c0.099,0.021,0.183,0.036,0.186,0.036c0,0,0,0,0.005,0.002
		c0.495,0.073,1.151-0.169,1.151-0.169c0.236-0.088,0.434-0.161,0.436-0.163c0.004-0.002,0.193-0.092,0.421-0.201l3-1.432
		c0.228-0.109,0.55-0.043,0.716,0.146l1.067,1.162c0.177,0.181,0.468,0.473,0.646,0.652l1.257,1.171
		c0.189,0.168,0.254,0.491,0.145,0.718l-1.448,2.998c-0.108,0.227-0.2,0.414-0.201,0.416s-0.003,0.007-0.005,0.012
		c0,0,0,0-0.003,0.004c-0.229,0.398-0.342,0.823-0.348,1.223c-0.008,0.341,0.05,0.501,0.05,0.501c0.086,0.237,0.324,0.55,0.53,0.696
		l1.993,1.35c0.212,0.137,0.565,0.352,0.783,0.479l0.771,0.447c0.217,0.127,0.58,0.324,0.804,0.441l2.075,1.018
		c0.229,0.107,0.481,0.191,0.561,0.188c0,0,0,0,0.073-0.012c0.607-0.096,1.296-0.846,1.296-0.846
		c0.17-0.186,0.426-0.509,0.568-0.717l1.891-2.753c0.144-0.208,0.455-0.312,0.695-0.229l1.595,0.498
		c0.242,0.068,0.64,0.176,0.886,0.239l1.584,0.362c0.246,0.05,0.463,0.297,0.483,0.549l0.244,3.303
		c0.018,0.252,0.033,0.463,0.033,0.469c0,0.008,0.049,0.213,0.109,0.459l0.544,1.158c0.166,0.19,0.507,0.365,0.76,0.389l2.631,0.176
		c0.253,0.012,0.666,0.021,0.918,0.021h0.291c0.252,0,0.666-0.006,0.918-0.017l2.688-0.166c0.251-0.021,0.615-0.172,0.809-0.335
		c0,0,0.146-0.123,0.312-0.432c0.188-0.349,0.24-0.762,0.24-0.762c0.032-0.252,0.059-0.458,0.059-0.461
		c0-0.004,0.016-0.213,0.035-0.464l0.26-3.317c0.02-0.25,0.238-0.497,0.487-0.546c0,0,1.217-0.241,1.991-0.459
		c0.82-0.202,2.077-0.621,2.077-0.621c0.239-0.08,0.553,0.024,0.694,0.234l1.873,2.753c0.143,0.209,0.258,0.381,0.26,0.383
		c0,0.002,0.049,0.078,0.104,0.168c0,0,0,0,0.057,0.079c0.287,0.395,0.656,0.683,1.045,0.838c0.201,0.08,0.201,0.08,0.201,0.08
		c0.225,0.026,0.596-0.037,0.824-0.142l2.061-1c0.225-0.115,0.587-0.312,0.807-0.438l0.838-0.481
		c0.219-0.125,0.571-0.34,0.784-0.476l1.946-1.31c0.206-0.146,0.407-0.325,0.448-0.4c0,0,0,0,0.028-0.073
		c0.004-0.014,0.009-0.025,0.014-0.039c0.033-0.1,0.06-0.203,0.077-0.312c0.002-0.018,0.005-0.034,0.008-0.052
		c0.015-0.105,0.021-0.214,0.019-0.323c0-0.023,0-0.023,0-0.023c-0.001-0.025-0.004-0.053-0.004-0.062c0,0,0,0,0-0.009
		c-0.006-0.102-0.018-0.203-0.035-0.307c-0.005-0.021-0.009-0.044-0.016-0.066c-0.023-0.113-0.057-0.227-0.097-0.34
		c-0.007-0.021-0.016-0.041-0.023-0.062c-0.044-0.114-0.044-0.114-0.044-0.114c-0.063-0.121-0.116-0.227-0.119-0.232
		s-0.1-0.207-0.209-0.436l-1.438-3.014c-0.108-0.227-0.043-0.551,0.148-0.717l1.238-1.141c0.181-0.178,0.472-0.47,0.65-0.649
		l1.095-1.181c0.168-0.189,0.491-0.254,0.718-0.145l2.983,1.442c0.227,0.11,0.418,0.202,0.422,0.205
		c0.005,0.003,0.209,0.062,0.452,0.132l1.286,0.104c0.247-0.051,0.568-0.261,0.714-0.467l1.313-1.936
		c0.137-0.212,0.353-0.564,0.48-0.782l0.527-0.911c0.127-0.219,0.325-0.582,0.441-0.806l0.969-1.983
		c0.105-0.229,0.161-0.621,0.125-0.871c0,0-0.011-0.073-0.139-0.327c-0.201-0.401-0.64-0.751-0.64-0.751
		c-0.198-0.157-0.364-0.288-0.37-0.291c-0.004-0.004-0.18-0.123-0.389-0.266L89,64.702c-0.209-0.144-0.312-0.455-0.23-0.695
		c0,0,0.393-1.156,0.59-1.928c0.24-0.82,0.51-2.137,0.51-2.137c0.049-0.247,0.297-0.465,0.549-0.483l3.324-0.245
		c0.251-0.019,0.457-0.034,0.457-0.034s0.064-0.001,0.139-0.003c0,0,0,0,0.066-0.004c0.529-0.039,1.002-0.225,1.353-0.508
		c0.161-0.128,0.161-0.128,0.161-0.128c0.129-0.171,0.254-0.517,0.277-0.769l0.176-2.634c0.01-0.252,0.021-0.665,0.021-0.917v-0.29
		C96.394,53.675,96.387,53.262,96.376,53.01z M59.686,82.532c-15.75,0-28.565-12.815-28.565-28.566
		c0-15.751,12.815-28.565,28.565-28.565c15.751,0,28.566,12.814,28.566,28.565C88.252,69.717,75.437,82.532,59.686,82.532z"/>
	<g>
		<path fill="#006998" d="M228.604,97.194H15.494V10.75h213.11V97.194z M16.052,96.637h211.994V11.308H16.052V96.637z"/>
	</g>
	<polygon fill="#006998" points="58.92,41.442 60.268,41.442 60.268,35.02 62.616,35.02 62.616,33.671 60.268,33.671 60.268,31.351 
		58.92,31.351 58.92,33.671 56.572,33.671 56.572,35.02 58.92,35.02 	"/>
	<path fill="#006998" d="M73.266,52.091l-2.664-7.609c-0.12-0.348-0.504-0.621-0.873-0.621h-4.314
		c-0.713-0.235-1.601-0.527-2.611-0.527c-1.823,0-2.93,1.039-2.976,1.083c-0.05,0.048-0.096,0.108-0.14,0.17
		c-0.044-0.062-0.09-0.123-0.14-0.17c-0.045-0.044-1.152-1.083-2.975-1.083c-1.013,0-1.899,0.292-2.61,0.527h-4.318
		c-0.369,0-0.753,0.273-0.874,0.62l-2.652,7.582c-0.231,0.032-0.5,0.073-0.684,0.104l-9.984,1.69
		c-0.126,0.021-0.192,0.062-0.193,0.108c-0.002,0.005,0,0.009,0.001,0.013c0,0.007,0,0.013,0.004,0.019
		c0.008,0.016,0.024,0.032,0.047,0.048c0.027,0.021,0.062,0.043,0.113,0.063l9.309,3.825c0.234,0.097,0.424,0.381,0.424,0.635v9.795
		c0,0.253,0.102,0.639,0.227,0.859c0,0,2.382,4.191,14.21,4.191h0.002h0.001c11.829,0,14.212-4.191,14.212-4.191
		c0.125-0.221,0.227-0.606,0.227-0.859v-9.795c0-0.254,0.19-0.538,0.424-0.635l9.31-3.825c0.05-0.021,0.087-0.042,0.114-0.063
		c0.022-0.016,0.038-0.032,0.046-0.048c0.002-0.003,0-0.007,0.002-0.011c0.003-0.007,0.006-0.015,0.004-0.021
		c-0.003-0.047-0.067-0.087-0.194-0.108l-9.983-1.69C73.62,52.145,73.442,52.118,73.266,52.091z M59.967,45.396
		c0-0.178,0.118-0.452,0.246-0.575c0.011-0.009,0.988-0.928,2.591-0.928c0.924,0,1.729,0.266,2.439,0.5
		c0.57,0.188,1.062,0.351,1.521,0.351l0.069-0.001c1.123-0.042,2.497-0.142,2.526-0.144c0.12,0,0.257,0.098,0.292,0.21l2.478,7.977
		c0.01,0.035,0.009,0.065-0.005,0.086c-0.013,0.021-0.041,0.034-0.078,0.038c-0.024,0.002-2.45,0.244-4.816,0.244
		c-1.084,0-1.704-0.461-2.359-0.949c-0.727-0.54-1.478-1.097-2.837-1.097c-1.054,0-1.687,0.335-2.066,0.75V45.396z M67.101,56.141
		v3.071c0,0.252-0.169,0.578-0.375,0.725l-0.154,0.109c-0.204,0.146-0.373,0.06-0.373-0.192v-3.071c0-0.252,0.169-0.579,0.373-0.725
		l0.154-0.109C66.932,55.802,67.101,55.889,67.101,56.141z M65.792,56.782v3.926c0,0.252-0.206,0.459-0.459,0.459H53.855
		c-0.251,0-0.458-0.207-0.458-0.459v-3.926c0-0.252,0.207-0.459,0.458-0.459h11.478C65.585,56.323,65.792,56.53,65.792,56.782z
		 M58.699,54.163c-0.243-0.207-0.669-0.362-0.989-0.362h-3.669c0.958-0.414,1.659-1.013,3.299-1.013
		c2.118,0,2.264,0.851,2.264,0.851c0,0.247,0.163,0.247,0.163,0c0,0,0.153-0.851,2.264-0.851c1.641,0,2.342,0.599,3.3,1.013h-3.668
		c-0.322,0-0.746,0.156-0.99,0.362c-0.006,0.004-0.479,0.396-0.986,0.396C59.179,54.559,58.699,54.163,58.699,54.163z
		 M49.725,44.809c0.035-0.112,0.17-0.209,0.305-0.209h0.002c0.014,0.001,1.389,0.101,2.514,0.143l0.067,0.001
		c0.459,0,0.95-0.163,1.52-0.351c0.71-0.234,1.516-0.5,2.44-0.5c1.591,0,2.582,0.92,2.59,0.928c0.129,0.124,0.246,0.397,0.246,0.575
		v6.462c-0.379-0.416-1.012-0.75-2.066-0.75c-1.359,0-2.11,0.557-2.836,1.097c-0.657,0.488-1.277,0.949-2.361,0.949
		c-2.364,0-4.791-0.242-4.816-0.244c-0.037-0.004-0.064-0.017-0.076-0.038c-0.016-0.021-0.017-0.051-0.006-0.086L49.725,44.809z
		 M52.989,56.782v3.071c0,0.252-0.167,0.339-0.373,0.192l-0.154-0.109c-0.205-0.146-0.375-0.473-0.375-0.725v-3.071
		c0-0.252,0.17-0.34,0.375-0.192l0.154,0.109C52.822,56.203,52.989,56.53,52.989,56.782z M37.745,54.346
		c-0.236-0.088-0.224-0.142,0.027-0.119l13.452,1.223c0.251,0.023,0.457,0.248,0.457,0.5v3.143c0,0.252-0.194,0.387-0.431,0.299
		L37.745,54.346z M72.917,67.827c0,0.254-0.103,0.64-0.228,0.858c0,0-2.18,3.839-13.095,3.839h-0.001h-0.002
		c-10.913,0-13.093-3.839-13.093-3.839c-0.124-0.219-0.227-0.604-0.227-0.858v-5.164c0-0.252,0.134-0.301,0.297-0.109
		c0,0,3.197,3.769,13.025,3.769l0,0h0.002c9.827,0,13.024-3.769,13.024-3.769c0.163-0.191,0.297-0.143,0.297,0.109V67.827z
		 M72.917,60.499c0,0.252-0.103,0.637-0.228,0.857c0,0-2.18,3.837-13.095,3.837h-0.001h-0.002c-10.913,0-13.093-3.837-13.093-3.837
		c-0.124-0.221-0.227-0.605-0.227-0.857v-1.951l4.984,2.039c0.233,0.096,0.58,0.309,0.773,0.473l0.611,0.524
		c0.192,0.165,0.556,0.3,0.809,0.3h12.29c0.251,0,0.616-0.135,0.807-0.3l0.613-0.524c0.191-0.164,0.54-0.377,0.773-0.473
		l4.984-2.039V60.499z M81.469,54.346l-13.506,5.045c-0.236,0.088-0.429-0.047-0.429-0.299V55.95c0-0.252,0.204-0.477,0.456-0.5
		l13.453-1.223C81.695,54.204,81.707,54.258,81.469,54.346z"/>
	<path fill="#006998" d="M59.686,25.952c-15.447,0-28.016,12.567-28.016,28.015c0,15.447,12.568,28.014,28.016,28.014
		c15.448,0,28.015-12.567,28.015-28.014C87.701,38.519,75.134,25.952,59.686,25.952z M79.728,37.534
		c0.177,0.215,0.345,0.435,0.515,0.655c0.104,0.137,0.21,0.271,0.312,0.411c0.119,0.163,0.235,0.33,0.352,0.496
		c0.144,0.207,0.289,0.415,0.43,0.628c0.076,0.116,0.149,0.234,0.226,0.353c0.168,0.265,0.333,0.532,0.491,0.805
		c0.015,0.024,0.029,0.049,0.044,0.073c0.037,0.062,0.073,0.126,0.109,0.19c0.157,0.275,0.307,0.553,0.452,0.831
		c0.061,0.118,0.122,0.234,0.182,0.353c0.118,0.235,0.228,0.471,0.339,0.708c0.083,0.177,0.167,0.354,0.243,0.532
		c0.074,0.166,0.142,0.333,0.21,0.5c0.104,0.248,0.206,0.497,0.3,0.749c0.034,0.086,0.063,0.173,0.095,0.26
		c0.119,0.327,0.195,0.551,0.195,0.551c0.08,0.239,0.146,0.437,0.146,0.438c0.002,0.001,0.061,0.204,0.131,0.446
		c0,0,0.328,1.115,0.502,1.906c0.004,0.021,0.01,0.042,0.015,0.063c0.069,0.323,0.129,0.648,0.187,0.974
		c0.02,0.108,0.041,0.216,0.059,0.325c0.041,0.25,0.073,0.5,0.107,0.75c0.026,0.195,0.053,0.391,0.075,0.587
		c0.02,0.179,0.035,0.357,0.051,0.537c0.024,0.276,0.048,0.551,0.062,0.829c0.008,0.118,0.012,0.236,0.017,0.354
		c0.015,0.333,0.025,0.667,0.026,1.003c0,0.042,0,0.082,0,0.124c0,0.042,0,0.083,0,0.125c-0.001,0.334-0.012,0.667-0.026,1
		c-0.005,0.12-0.009,0.24-0.017,0.361c-0.014,0.273-0.037,0.546-0.062,0.817c-0.016,0.184-0.031,0.367-0.053,0.551
		c-0.021,0.19-0.046,0.379-0.071,0.568c-0.034,0.257-0.068,0.515-0.109,0.77c-0.018,0.102-0.037,0.199-0.055,0.301
		c-0.061,0.334-0.12,0.668-0.192,1c-0.003,0.01-0.004,0.02-0.007,0.029c-0.175,0.799-0.386,1.588-0.635,2.368
		c-0.001,0.005-0.003,0.011-0.004,0.015c-0.104,0.329-0.221,0.655-0.338,0.98c-0.034,0.089-0.064,0.178-0.099,0.268
		c-0.093,0.249-0.194,0.494-0.297,0.74c-0.069,0.17-0.139,0.34-0.213,0.508c-0.075,0.176-0.158,0.35-0.238,0.523
		c-0.112,0.24-0.226,0.48-0.346,0.718c-0.058,0.114-0.117,0.228-0.177,0.341c-0.151,0.291-0.307,0.578-0.469,0.865
		c-0.009,0.014-0.017,0.027-0.024,0.04c-0.036,0.063-0.072,0.127-0.109,0.188c-0.166,0.287-0.34,0.567-0.516,0.844
		c-0.063,0.1-0.128,0.201-0.193,0.301c-0.15,0.231-0.309,0.459-0.467,0.684c-0.103,0.148-0.207,0.297-0.314,0.442
		c-0.116,0.159-0.236,0.314-0.355,0.47c-0.156,0.199-0.309,0.4-0.471,0.597c-0.07,0.085-0.143,0.168-0.213,0.253
		c-0.212,0.252-0.344,0.404-0.344,0.404c-0.168,0.189-0.319,0.359-0.337,0.379c0,0,0,0-0.017,0.018
		c-0.533,0.584-1.092,1.143-1.674,1.676c-0.021,0.018-0.04,0.037-0.059,0.055c-0.244,0.221-0.491,0.431-0.743,0.642
		c-0.087,0.073-0.172,0.149-0.261,0.221c-0.193,0.158-0.391,0.31-0.587,0.462c-0.16,0.123-0.317,0.246-0.481,0.365
		c-0.143,0.104-0.287,0.205-0.43,0.306c-0.229,0.161-0.461,0.321-0.697,0.476c-0.096,0.062-0.191,0.123-0.288,0.186
		c-0.279,0.178-0.564,0.352-0.851,0.521c-0.074,0.043-0.147,0.086-0.223,0.127c-0.288,0.166-0.579,0.322-0.871,0.476
		c-0.113,0.058-0.227,0.118-0.34,0.175c-0.239,0.121-0.479,0.234-0.721,0.347c-0.173,0.079-0.346,0.161-0.52,0.238
		c-0.171,0.073-0.342,0.144-0.511,0.214c-0.247,0.101-0.491,0.202-0.739,0.296c-0.09,0.034-0.181,0.064-0.27,0.098
		c-0.324,0.118-0.649,0.233-0.979,0.339c-0.003,0.001-0.003,0.001-0.003,0.001c-0.006,0.001-0.208,0.06-0.451,0.127
		c0,0-1.832,0.515-2.996,0.718c-0.081,0.014-0.163,0.03-0.244,0.044c-0.273,0.045-0.549,0.081-0.823,0.118
		c-0.171,0.021-0.341,0.046-0.515,0.064c-0.199,0.023-0.401,0.04-0.602,0.058c-0.254,0.022-0.507,0.044-0.763,0.058
		c-0.138,0.01-0.276,0.014-0.414,0.02c-0.315,0.014-0.63,0.022-0.948,0.023c-0.026,0.002-0.053,0.002-0.081,0.002
		c-0.071,0-0.146,0-0.218-0.002c-0.318-0.002-0.637-0.01-0.951-0.023c-0.131-0.006-0.262-0.01-0.393-0.018
		c-0.263-0.016-0.525-0.037-0.787-0.061c-0.193-0.018-0.384-0.033-0.576-0.055c-0.183-0.021-0.365-0.045-0.546-0.07
		c-0.263-0.034-0.527-0.069-0.79-0.113c-0.095-0.015-0.188-0.033-0.283-0.051c-0.338-0.059-0.678-0.121-1.016-0.194
		c-0.006-0.001-0.006-0.001-0.006-0.001c-0.007-0.002-0.213-0.053-0.458-0.112c0,0-1.126-0.272-1.897-0.519
		c-0.018-0.006-0.037-0.012-0.057-0.018c-0.317-0.102-0.631-0.213-0.943-0.326c-0.102-0.037-0.203-0.072-0.303-0.109
		c-0.24-0.09-0.475-0.188-0.712-0.285c-0.179-0.074-0.36-0.146-0.539-0.227c-0.166-0.073-0.331-0.15-0.495-0.227
		c-0.25-0.115-0.499-0.232-0.744-0.357c-0.107-0.054-0.213-0.109-0.319-0.165c-0.294-0.153-0.586-0.312-0.876-0.476
		c-0.039-0.024-0.08-0.047-0.12-0.07c-0.034-0.019-0.066-0.037-0.101-0.058c-0.289-0.168-0.571-0.343-0.851-0.521
		c-0.102-0.064-0.204-0.129-0.306-0.195c-0.229-0.15-0.453-0.307-0.677-0.464c-0.151-0.104-0.301-0.21-0.449-0.319
		c-0.156-0.113-0.306-0.232-0.459-0.349c-0.205-0.157-0.411-0.314-0.608-0.478c-0.081-0.066-0.158-0.135-0.24-0.201
		c-0.257-0.217-0.514-0.436-0.762-0.661c-0.013-0.011-0.022-0.021-0.033-0.03c-0.601-0.549-1.406-1.393-1.406-1.393
		c-0.174-0.183-0.32-0.334-0.321-0.337c-0.003-0.003-0.146-0.164-0.312-0.354c0,0-0.152-0.172-0.374-0.438
		c-0.062-0.072-0.124-0.145-0.186-0.217c-0.167-0.207-0.329-0.418-0.492-0.629c-0.112-0.145-0.226-0.29-0.333-0.438
		c-0.114-0.155-0.223-0.312-0.334-0.471c-0.152-0.216-0.302-0.433-0.447-0.655c-0.072-0.107-0.142-0.218-0.212-0.327
		c-0.172-0.271-0.341-0.545-0.504-0.824c-0.022-0.039-0.043-0.077-0.066-0.115c-0.024-0.044-0.05-0.088-0.075-0.131
		c-0.16-0.281-0.312-0.565-0.463-0.851c-0.059-0.114-0.12-0.227-0.175-0.342c-0.122-0.239-0.234-0.479-0.347-0.719
		c-0.08-0.174-0.162-0.345-0.236-0.521c-0.075-0.17-0.146-0.342-0.218-0.515c-0.101-0.243-0.2-0.486-0.293-0.732
		c-0.035-0.093-0.067-0.187-0.102-0.279c-0.116-0.321-0.23-0.643-0.334-0.968c-0.003-0.01-0.004-0.021-0.009-0.03
		c-0.245-0.769-0.454-1.549-0.628-2.337c-0.003-0.019-0.009-0.036-0.012-0.055c-0.07-0.325-0.131-0.654-0.189-0.98
		c-0.018-0.107-0.038-0.212-0.056-0.318c-0.041-0.251-0.075-0.504-0.108-0.756c-0.027-0.194-0.052-0.388-0.074-0.582
		c-0.021-0.18-0.035-0.359-0.051-0.539c-0.025-0.276-0.049-0.552-0.063-0.829c-0.008-0.118-0.012-0.235-0.017-0.352
		c-0.013-0.332-0.023-0.666-0.024-1.001c0-0.057,0-0.114,0-0.171c0-0.026,0-0.052,0-0.078c0.001-0.336,0.012-0.67,0.024-1.002
		c0.005-0.121,0.009-0.242,0.017-0.362c0.016-0.274,0.038-0.547,0.062-0.819c0.018-0.183,0.032-0.365,0.053-0.546
		c0.022-0.193,0.047-0.385,0.074-0.577c0.033-0.254,0.067-0.508,0.108-0.761c0.018-0.105,0.036-0.209,0.056-0.313
		c0.059-0.329,0.119-0.658,0.189-0.985c0.005-0.018,0.009-0.035,0.012-0.053c0.176-0.795,0.504-1.917,0.504-1.917
		c0.071-0.242,0.13-0.44,0.13-0.442c0.001-0.001,0.067-0.199,0.148-0.438c0,0,0.075-0.226,0.194-0.553
		c0.032-0.087,0.062-0.173,0.094-0.26c0.096-0.251,0.198-0.5,0.3-0.749c0.071-0.167,0.139-0.334,0.21-0.5
		c0.078-0.178,0.16-0.354,0.243-0.531c0.111-0.237,0.222-0.474,0.341-0.708c0.058-0.118,0.121-0.234,0.182-0.352
		c0.146-0.28,0.298-0.559,0.455-0.836c0.03-0.055,0.062-0.11,0.094-0.164c0.018-0.031,0.035-0.062,0.055-0.093
		c0.16-0.276,0.328-0.545,0.496-0.812c0.074-0.115,0.146-0.229,0.22-0.342c0.142-0.217,0.289-0.43,0.438-0.641
		c0.112-0.161,0.226-0.324,0.344-0.483c0.104-0.144,0.213-0.283,0.321-0.424c0.166-0.215,0.333-0.431,0.505-0.641
		c0.056-0.069,0.114-0.136,0.172-0.204c0.752-0.898,1.562-1.748,2.428-2.536c0.009-0.008,0.016-0.016,0.025-0.023
		c0.251-0.229,0.512-0.449,0.771-0.667c0.077-0.065,0.152-0.131,0.23-0.195c0.201-0.165,0.409-0.324,0.616-0.483
		c0.15-0.114,0.298-0.231,0.452-0.344c0.149-0.11,0.303-0.216,0.455-0.324c0.223-0.155,0.444-0.31,0.671-0.458
		c0.103-0.068,0.208-0.133,0.312-0.199c0.279-0.177,0.562-0.352,0.848-0.52c0.028-0.015,0.054-0.03,0.081-0.046
		c0.047-0.027,0.095-0.054,0.141-0.082c0.289-0.165,0.582-0.323,0.875-0.476c0.106-0.055,0.21-0.111,0.317-0.165
		c0.247-0.125,0.497-0.242,0.746-0.358c0.164-0.076,0.329-0.154,0.495-0.226c0.179-0.079,0.36-0.152,0.539-0.227
		c0.237-0.097,0.472-0.194,0.71-0.285c0.102-0.039,0.203-0.073,0.305-0.109c0.312-0.114,0.626-0.226,0.943-0.327
		c0.018-0.007,0.037-0.012,0.057-0.017c0.767-0.245,1.546-0.453,2.334-0.625c0.01-0.002,0.01-0.002,0.01-0.002
		c0.012-0.003,0.225-0.046,0.471-0.096c0,0,0.218-0.043,0.555-0.103c0.097-0.018,0.195-0.037,0.295-0.053
		c0.258-0.042,0.515-0.077,0.776-0.111c0.187-0.025,0.373-0.051,0.562-0.071c0.187-0.021,0.371-0.037,0.559-0.053
		c0.269-0.024,0.536-0.046,0.807-0.062c0.125-0.007,0.248-0.011,0.373-0.017c0.325-0.014,0.651-0.023,0.979-0.025
		c0.056,0,0.111,0,0.166,0c0.035,0,0.07,0,0.105,0c0.329,0.001,0.655,0.011,0.98,0.025c0.126,0.006,0.253,0.01,0.378,0.018
		c0.271,0.015,0.536,0.037,0.804,0.061c0.187,0.017,0.375,0.032,0.562,0.053c0.188,0.021,0.374,0.046,0.56,0.071
		c0.261,0.035,0.52,0.069,0.776,0.111c0.101,0.017,0.2,0.036,0.3,0.053c0.334,0.059,0.666,0.121,0.997,0.192
		c0.015,0.003,0.029,0.006,0.043,0.009c0.789,0.173,1.569,0.382,2.337,0.627c0.014,0.004,0.027,0.008,0.041,0.013
		c0.32,0.103,0.639,0.215,0.954,0.33c0.097,0.036,0.198,0.07,0.296,0.107c0.24,0.091,0.478,0.189,0.714,0.286
		c0.18,0.074,0.358,0.146,0.536,0.225c0.166,0.073,0.333,0.151,0.497,0.228c0.25,0.116,0.499,0.233,0.746,0.357
		c0.106,0.054,0.21,0.109,0.316,0.164c0.291,0.152,0.582,0.309,0.87,0.473c0.066,0.038,0.066,0.038,0.066,0.038
		c0.074,0.042,0.142,0.082,0.152,0.087c0,0,0,0,0.008,0.005c0.285,0.167,0.565,0.339,0.844,0.516
		c0.106,0.068,0.216,0.136,0.321,0.206c0.224,0.146,0.441,0.299,0.659,0.452c0.156,0.109,0.312,0.218,0.467,0.33
		c0.15,0.11,0.296,0.224,0.442,0.337c0.209,0.162,0.419,0.323,0.624,0.491c0.074,0.061,0.146,0.124,0.22,0.186
		c0.264,0.221,0.526,0.444,0.78,0.676c0.005,0.004,0.005,0.004,0.005,0.004c0.006,0.005,0.159,0.153,0.34,0.33
		c0,0,1.359,1.329,2.116,2.235C79.622,37.41,79.676,37.471,79.728,37.534z"/>
</g>
</svg>
